<mxfile host="65bd71144e">
    <diagram id="9UBSaRJQEHncUmPIQCW-" name="Page-1">
        <mxGraphModel dx="754" dy="567" grid="1" gridSize="10" guides="1" tooltips="1" connect="1" arrows="1" fold="1" page="1" pageScale="1" pageWidth="827" pageHeight="1169" math="0" shadow="0">
            <root>
                <mxCell id="0"/>
                <mxCell id="1" parent="0"/>
                <mxCell id="Psd-jtkkRKqVuiW1k2i4-2" value="Document Tracking System" style="shape=umlFrame;whiteSpace=wrap;html=1;width=100;height=40;" parent="1" vertex="1">
                    <mxGeometry x="140" y="75" width="690" height="840" as="geometry"/>
                </mxCell>
                <mxCell id="Psd-jtkkRKqVuiW1k2i4-3" value="Admin" style="shape=umlActor;verticalLabelPosition=bottom;verticalAlign=top;html=1;" parent="1" vertex="1">
                    <mxGeometry x="50" y="180" width="30" height="60" as="geometry"/>
                </mxCell>
                <mxCell id="Psd-jtkkRKqVuiW1k2i4-4" value="Co- Admin" style="shape=umlActor;verticalLabelPosition=bottom;verticalAlign=top;html=1;" parent="1" vertex="1">
                    <mxGeometry x="50" y="390" width="30" height="60" as="geometry"/>
                </mxCell>
                <mxCell id="Psd-jtkkRKqVuiW1k2i4-5" value="Customer" style="shape=umlActor;verticalLabelPosition=bottom;verticalAlign=top;html=1;" parent="1" vertex="1">
                    <mxGeometry x="40" y="560" width="30" height="60" as="geometry"/>
                </mxCell>
                <mxCell id="Psd-jtkkRKqVuiW1k2i4-6" value="Employee" style="shape=umlActor;verticalLabelPosition=bottom;verticalAlign=top;html=1;" parent="1" vertex="1">
                    <mxGeometry x="40" y="730" width="30" height="60" as="geometry"/>
                </mxCell>
                <mxCell id="Psd-jtkkRKqVuiW1k2i4-14" value="view other users profile" style="ellipse;whiteSpace=wrap;html=1;" parent="1" vertex="1">
                    <mxGeometry x="300" y="130" width="140" height="70" as="geometry"/>
                </mxCell>
                <mxCell id="Psd-jtkkRKqVuiW1k2i4-15" value="register users" style="ellipse;whiteSpace=wrap;html=1;" parent="1" vertex="1">
                    <mxGeometry x="300" y="210" width="140" height="70" as="geometry"/>
                </mxCell>
                <mxCell id="Psd-jtkkRKqVuiW1k2i4-18" value="create co-admins" style="ellipse;whiteSpace=wrap;html=1;" parent="1" vertex="1">
                    <mxGeometry x="300" y="290" width="140" height="70" as="geometry"/>
                </mxCell>
                <mxCell id="Psd-jtkkRKqVuiW1k2i4-19" value="remove users" style="ellipse;whiteSpace=wrap;html=1;" parent="1" vertex="1">
                    <mxGeometry x="300" y="370" width="140" height="70" as="geometry"/>
                </mxCell>
                <mxCell id="Psd-jtkkRKqVuiW1k2i4-25" value="" style="endArrow=open;endFill=1;endSize=12;html=1;rounded=0;" parent="1" target="Psd-jtkkRKqVuiW1k2i4-14" edge="1">
                    <mxGeometry width="160" relative="1" as="geometry">
                        <mxPoint x="80" y="209.5" as="sourcePoint"/>
                        <mxPoint x="240" y="209.5" as="targetPoint"/>
                    </mxGeometry>
                </mxCell>
                <mxCell id="Psd-jtkkRKqVuiW1k2i4-26" value="" style="endArrow=open;endFill=1;endSize=12;html=1;rounded=0;" parent="1" target="Psd-jtkkRKqVuiW1k2i4-15" edge="1">
                    <mxGeometry width="160" relative="1" as="geometry">
                        <mxPoint x="80" y="210" as="sourcePoint"/>
                        <mxPoint x="313.0160671298752" y="185.16307946994993" as="targetPoint"/>
                    </mxGeometry>
                </mxCell>
                <mxCell id="Psd-jtkkRKqVuiW1k2i4-27" value="" style="endArrow=open;endFill=1;endSize=12;html=1;rounded=0;entryX=0;entryY=0.5;entryDx=0;entryDy=0;" parent="1" target="Psd-jtkkRKqVuiW1k2i4-18" edge="1">
                    <mxGeometry width="160" relative="1" as="geometry">
                        <mxPoint x="80" y="210" as="sourcePoint"/>
                        <mxPoint x="313.1455104232132" y="254.62602747946414" as="targetPoint"/>
                    </mxGeometry>
                </mxCell>
                <mxCell id="Psd-jtkkRKqVuiW1k2i4-28" value="" style="endArrow=open;endFill=1;endSize=12;html=1;rounded=0;entryX=0;entryY=0.5;entryDx=0;entryDy=0;" parent="1" target="Psd-jtkkRKqVuiW1k2i4-19" edge="1">
                    <mxGeometry width="160" relative="1" as="geometry">
                        <mxPoint x="80" y="210" as="sourcePoint"/>
                        <mxPoint x="310" y="345" as="targetPoint"/>
                    </mxGeometry>
                </mxCell>
                <mxCell id="Psd-jtkkRKqVuiW1k2i4-29" value="" style="endArrow=open;endFill=1;endSize=12;html=1;rounded=0;entryX=0.077;entryY=0.746;entryDx=0;entryDy=0;entryPerimeter=0;" parent="1" target="Psd-jtkkRKqVuiW1k2i4-15" edge="1">
                    <mxGeometry width="160" relative="1" as="geometry">
                        <mxPoint x="80" y="420" as="sourcePoint"/>
                        <mxPoint x="250" y="485" as="targetPoint"/>
                    </mxGeometry>
                </mxCell>
                <mxCell id="Psd-jtkkRKqVuiW1k2i4-30" value="" style="endArrow=open;endFill=1;endSize=12;html=1;rounded=0;entryX=0.071;entryY=0.714;entryDx=0;entryDy=0;entryPerimeter=0;" parent="1" target="Psd-jtkkRKqVuiW1k2i4-14" edge="1">
                    <mxGeometry width="160" relative="1" as="geometry">
                        <mxPoint x="80" y="420" as="sourcePoint"/>
                        <mxPoint x="320.78" y="272.22" as="targetPoint"/>
                    </mxGeometry>
                </mxCell>
                <mxCell id="Psd-jtkkRKqVuiW1k2i4-32" value="check department" style="ellipse;whiteSpace=wrap;html=1;" parent="1" vertex="1">
                    <mxGeometry x="620" y="200" width="100" height="50" as="geometry"/>
                </mxCell>
                <mxCell id="Psd-jtkkRKqVuiW1k2i4-33" value="check branch" style="ellipse;whiteSpace=wrap;html=1;" parent="1" vertex="1">
                    <mxGeometry x="640" y="290" width="100" height="50" as="geometry"/>
                </mxCell>
                <mxCell id="Psd-jtkkRKqVuiW1k2i4-34" value="&amp;lt;&amp;lt;included&amp;gt;&amp;gt;" style="endArrow=block;endSize=16;endFill=0;html=1;rounded=0;exitX=1;exitY=0.5;exitDx=0;exitDy=0;entryX=0;entryY=0;entryDx=0;entryDy=0;" parent="1" target="Psd-jtkkRKqVuiW1k2i4-33" edge="1">
                    <mxGeometry width="160" relative="1" as="geometry">
                        <mxPoint x="440" y="165" as="sourcePoint"/>
                        <mxPoint x="550" y="175" as="targetPoint"/>
                    </mxGeometry>
                </mxCell>
                <mxCell id="Psd-jtkkRKqVuiW1k2i4-35" value="" style="endArrow=open;endFill=1;endSize=12;html=1;rounded=0;" parent="1" target="Psd-jtkkRKqVuiW1k2i4-19" edge="1">
                    <mxGeometry width="160" relative="1" as="geometry">
                        <mxPoint x="80" y="420" as="sourcePoint"/>
                        <mxPoint x="320.78" y="272.22" as="targetPoint"/>
                    </mxGeometry>
                </mxCell>
                <mxCell id="Psd-jtkkRKqVuiW1k2i4-37" value="&amp;lt;&amp;lt;included&amp;gt;&amp;gt;" style="endArrow=block;endSize=16;endFill=0;html=1;rounded=0;exitX=1;exitY=0.5;exitDx=0;exitDy=0;entryX=0;entryY=0.5;entryDx=0;entryDy=0;" parent="1" source="Psd-jtkkRKqVuiW1k2i4-14" target="Psd-jtkkRKqVuiW1k2i4-32" edge="1">
                    <mxGeometry width="160" relative="1" as="geometry">
                        <mxPoint x="450" y="110" as="sourcePoint"/>
                        <mxPoint x="640" y="280" as="targetPoint"/>
                    </mxGeometry>
                </mxCell>
                <mxCell id="Psd-jtkkRKqVuiW1k2i4-38" value="&amp;lt;&amp;lt;included&amp;gt;&amp;gt;" style="endArrow=block;endSize=16;endFill=0;html=1;rounded=0;exitX=1;exitY=0.5;exitDx=0;exitDy=0;entryX=0.364;entryY=1.036;entryDx=0;entryDy=0;entryPerimeter=0;" parent="1" target="Psd-jtkkRKqVuiW1k2i4-32" edge="1">
                    <mxGeometry width="160" relative="1" as="geometry">
                        <mxPoint x="440" y="405" as="sourcePoint"/>
                        <mxPoint x="660" y="240" as="targetPoint"/>
                    </mxGeometry>
                </mxCell>
                <mxCell id="Psd-jtkkRKqVuiW1k2i4-39" value="&amp;lt;&amp;lt;included&amp;gt;&amp;gt;" style="endArrow=block;endSize=16;endFill=0;html=1;rounded=0;exitX=1;exitY=0.5;exitDx=0;exitDy=0;entryX=0.364;entryY=1.028;entryDx=0;entryDy=0;entryPerimeter=0;" parent="1" target="Psd-jtkkRKqVuiW1k2i4-33" edge="1">
                    <mxGeometry width="160" relative="1" as="geometry">
                        <mxPoint x="440" y="405" as="sourcePoint"/>
                        <mxPoint x="630" y="575" as="targetPoint"/>
                    </mxGeometry>
                </mxCell>
                <mxCell id="Psd-jtkkRKqVuiW1k2i4-40" value="view available employees" style="ellipse;whiteSpace=wrap;html=1;" parent="1" vertex="1">
                    <mxGeometry x="300" y="460" width="140" height="70" as="geometry"/>
                </mxCell>
                <mxCell id="Psd-jtkkRKqVuiW1k2i4-41" value="" style="endArrow=open;endFill=1;endSize=12;html=1;rounded=0;entryX=0.011;entryY=0.626;entryDx=0;entryDy=0;entryPerimeter=0;exitX=0.5;exitY=0.5;exitDx=0;exitDy=0;exitPerimeter=0;" parent="1" source="Psd-jtkkRKqVuiW1k2i4-6" target="Psd-jtkkRKqVuiW1k2i4-43" edge="1">
                    <mxGeometry width="160" relative="1" as="geometry">
                        <mxPoint x="80" y="420" as="sourcePoint"/>
                        <mxPoint x="310" y="415" as="targetPoint"/>
                    </mxGeometry>
                </mxCell>
                <mxCell id="Psd-jtkkRKqVuiW1k2i4-42" value="" style="endArrow=open;endFill=1;endSize=12;html=1;rounded=0;entryX=0.043;entryY=0.329;entryDx=0;entryDy=0;entryPerimeter=0;" parent="1" target="Psd-jtkkRKqVuiW1k2i4-40" edge="1">
                    <mxGeometry width="160" relative="1" as="geometry">
                        <mxPoint x="80" y="210" as="sourcePoint"/>
                        <mxPoint x="320" y="425" as="targetPoint"/>
                    </mxGeometry>
                </mxCell>
                <mxCell id="Psd-jtkkRKqVuiW1k2i4-43" value="view completed job history" style="ellipse;whiteSpace=wrap;html=1;" parent="1" vertex="1">
                    <mxGeometry x="300" y="820" width="140" height="70" as="geometry"/>
                </mxCell>
                <mxCell id="Psd-jtkkRKqVuiW1k2i4-44" value="view assigned job" style="ellipse;whiteSpace=wrap;html=1;" parent="1" vertex="1">
                    <mxGeometry x="300" y="740" width="140" height="70" as="geometry"/>
                </mxCell>
                <mxCell id="Psd-jtkkRKqVuiW1k2i4-45" value="" style="endArrow=open;endFill=1;endSize=12;html=1;rounded=0;entryX=0;entryY=0.5;entryDx=0;entryDy=0;exitX=0.5;exitY=0.5;exitDx=0;exitDy=0;exitPerimeter=0;" parent="1" source="Psd-jtkkRKqVuiW1k2i4-6" target="Psd-jtkkRKqVuiW1k2i4-44" edge="1">
                    <mxGeometry width="160" relative="1" as="geometry">
                        <mxPoint x="65" y="770" as="sourcePoint"/>
                        <mxPoint x="311.53999999999996" y="843.8199999999999" as="targetPoint"/>
                    </mxGeometry>
                </mxCell>
                <mxCell id="Psd-jtkkRKqVuiW1k2i4-58" value="check employee log" style="ellipse;whiteSpace=wrap;html=1;" parent="1" vertex="1">
                    <mxGeometry x="590" y="440" width="140" height="70" as="geometry"/>
                </mxCell>
                <mxCell id="Psd-jtkkRKqVuiW1k2i4-59" value="&amp;lt;&amp;lt;included&amp;gt;&amp;gt;" style="endArrow=block;endSize=16;endFill=0;html=1;rounded=0;exitX=1;exitY=0.5;exitDx=0;exitDy=0;entryX=0;entryY=0.5;entryDx=0;entryDy=0;" parent="1" source="Psd-jtkkRKqVuiW1k2i4-40" target="Psd-jtkkRKqVuiW1k2i4-58" edge="1">
                    <mxGeometry width="160" relative="1" as="geometry">
                        <mxPoint x="450" y="415" as="sourcePoint"/>
                        <mxPoint x="654.6446609406726" y="362.6776695296637" as="targetPoint"/>
                    </mxGeometry>
                </mxCell>
                <mxCell id="Psd-jtkkRKqVuiW1k2i4-60" value="send request for register" style="ellipse;whiteSpace=wrap;html=1;" parent="1" vertex="1">
                    <mxGeometry x="300" y="660" width="140" height="70" as="geometry"/>
                </mxCell>
                <mxCell id="Psd-jtkkRKqVuiW1k2i4-61" value="" style="endArrow=open;endFill=1;endSize=12;html=1;rounded=0;entryX=0;entryY=0.5;entryDx=0;entryDy=0;" parent="1" target="Psd-jtkkRKqVuiW1k2i4-60" edge="1">
                    <mxGeometry width="160" relative="1" as="geometry">
                        <mxPoint x="60" y="590" as="sourcePoint"/>
                        <mxPoint x="320" y="695" as="targetPoint"/>
                    </mxGeometry>
                </mxCell>
                <mxCell id="Psd-jtkkRKqVuiW1k2i4-62" value="" style="endArrow=open;endFill=1;endSize=12;html=1;rounded=0;entryX=0.051;entryY=0.72;entryDx=0;entryDy=0;entryPerimeter=0;" parent="1" target="Psd-jtkkRKqVuiW1k2i4-60" edge="1">
                    <mxGeometry width="160" relative="1" as="geometry">
                        <mxPoint x="60" y="760" as="sourcePoint"/>
                        <mxPoint x="326.4428430849664" y="709.6670362111618" as="targetPoint"/>
                    </mxGeometry>
                </mxCell>
                <mxCell id="Psd-jtkkRKqVuiW1k2i4-63" value="view users' requests" style="ellipse;whiteSpace=wrap;html=1;" parent="1" vertex="1">
                    <mxGeometry x="300" y="560" width="140" height="70" as="geometry"/>
                </mxCell>
                <mxCell id="Psd-jtkkRKqVuiW1k2i4-64" value="" style="endArrow=open;endFill=1;endSize=12;html=1;rounded=0;entryX=0;entryY=0.5;entryDx=0;entryDy=0;" parent="1" target="Psd-jtkkRKqVuiW1k2i4-63" edge="1">
                    <mxGeometry width="160" relative="1" as="geometry">
                        <mxPoint x="80" y="419" as="sourcePoint"/>
                        <mxPoint x="310.3715744321455" y="418.60147028799247" as="targetPoint"/>
                    </mxGeometry>
                </mxCell>
                <mxCell id="Psd-jtkkRKqVuiW1k2i4-65" value="" style="endArrow=open;endFill=1;endSize=12;html=1;rounded=0;entryX=0.049;entryY=0.329;entryDx=0;entryDy=0;entryPerimeter=0;" parent="1" target="Psd-jtkkRKqVuiW1k2i4-63" edge="1">
                    <mxGeometry width="160" relative="1" as="geometry">
                        <mxPoint x="80" y="210" as="sourcePoint"/>
                        <mxPoint x="316.02" y="493.03" as="targetPoint"/>
                    </mxGeometry>
                </mxCell>
                <mxCell id="Psd-jtkkRKqVuiW1k2i4-69" value="&amp;lt;&amp;lt;included&amp;gt;&amp;gt;" style="endArrow=block;endSize=16;endFill=0;html=1;rounded=0;exitX=1;exitY=0.5;exitDx=0;exitDy=0;entryX=0.048;entryY=0.788;entryDx=0;entryDy=0;entryPerimeter=0;" parent="1" source="Psd-jtkkRKqVuiW1k2i4-15" target="Psd-jtkkRKqVuiW1k2i4-32" edge="1">
                    <mxGeometry width="160" relative="1" as="geometry">
                        <mxPoint x="450" y="175" as="sourcePoint"/>
                        <mxPoint x="640" y="255" as="targetPoint"/>
                    </mxGeometry>
                </mxCell>
                <mxCell id="Psd-jtkkRKqVuiW1k2i4-70" value="&amp;lt;&amp;lt;included&amp;gt;&amp;gt;" style="endArrow=block;endSize=16;endFill=0;html=1;rounded=0;exitX=0.991;exitY=0.631;exitDx=0;exitDy=0;entryX=0;entryY=1;entryDx=0;entryDy=0;exitPerimeter=0;" parent="1" source="Psd-jtkkRKqVuiW1k2i4-15" target="Psd-jtkkRKqVuiW1k2i4-33" edge="1">
                    <mxGeometry width="160" relative="1" as="geometry">
                        <mxPoint x="450" y="175" as="sourcePoint"/>
                        <mxPoint x="630" y="340" as="targetPoint"/>
                    </mxGeometry>
                </mxCell>
            </root>
        </mxGraphModel>
    </diagram>
</mxfile>